<svg class="svggraph" xmlns="http://www.w3.org/2000/svg" viewBox="0 0 1050 850 ">
  <polyline fill="none" stroke="#0074d9" stroke-width="2"
    points="0,196,1.5,197,3,196,4.5,194,6,194,7.5,194,9,193,10.5,191,12,187,13.5,190,15,188,16.5,186,18,184,19.5,186,21,188,22.5,188,24,188,25.5,184,27,185,28.5,182,30,182,31.5,179,33,178,34.5,172,36,172,37.5,171,39,170,40.5,171,42,167,43.5,167,45,167,46.5,168,48,172,49.5,175,51,175,52.5,171,54,168,55.5,171,57,172,58.5,171,60,172,61.5,172,63,175,64.5,174,66,176,67.5,177,69,177,70.5,175,72,177,73.5,177,75,180,76.5,179,78,178,79.5,177,81,176,82.5,177,84,179,85.5,178,87,179,88.5,180,90,180,91.5,183,93,183,94.5,184,96,185,97.5,188,99,189,100.5,187,102,186,103.5,184,105,184,106.5,182,108,181,109.5,179,111,182,112.5,182,114,181,115.5,182,117,181,118.5,182,120,180,121.5,179,123,179,124.5,178,126,178,127.5,178,129,177,130.5,179,132,180,133.5,188,135,189,136.5,189,138,187,139.5,189,141,191,142.5,190,144,190,145.5,188,147,187,148.5,191,150,191,151.5,190,153,191,154.5,192,156,192,157.5,188,159,187,160.5,187,162,185,163.5,185,165,187,166.5,185,168,185,169.5,186,171,187,172.5,190,174,192,175.5,192,177,191,178.5,190,180,189,181.5,188,183,189,184.5,186,186,184,187.5,183,189,181,190.5,178,192,179,193.5,182,195,188,196.5,185,198,183,199.5,182,201,180,202.5,179,204,184,205.5,187,207,185,208.5,187,210,182,211.5,183,213,182,214.5,185,216,185,217.5,186,219,189,220.5,188,222,189,223.5,188,225,179,226.5,176,228,176,229.5,176,231,175,232.5,176,234,177,235.5,178,237,179,238.5,178,240,180,241.5,180,243,180,244.5,182,246,181,247.5,181,249,181,250.5,179,252,178,253.5,179,255,178
    ">
  </polyline>
 <text x="912.1" y="95">Max:289</text><text x="912.1" y="284">Min:81</text><text x=""
    y="307">31/08/2022</text><text x="830.1" y="307">30/11/2022</text><text x="" y="330">played: </text>
   <rect x=""y="81" width="915.1" height="209" fill="transparent" stroke="black" stroke-width="1"> </rect>
</svg>