<svg class="svggraph" xmlns="http://www.w3.org/2000/svg" viewBox="0 0 1050 850 ">
  <polyline fill="none" stroke="#0074d9" stroke-width="2"
    points="0,240,10,248,20,147,30,273,40,285,50,162,60,223,70,286,80,265,90,231,100,257,110,288,120,235,130,278,140,208,150,143,160,163,170,225,180,115,190,171,200,200,210,131,220,273,230,170,240,136,250,183,260,221,270,145,280,258,290,264,300,222,310,271,320,125,330,140,340,258,350,289,360,227,370,255,380,241,390,132,400,144,410,207,420,230,430,260,440,252,450,278,460,204,470,169,480,257,490,143,500,222,510,223,520,149,530,121,540,232,550,136,560,219,570,198,580,231,590,150,600,110,610,263,620,160,630,282,640,179,650,160,660,205,670,160,680,262,690,128,700,182,710,133,720,220,730,233,740,141,750,219,760,289,770,121,780,261,790,226,800,284,810,202,820,256,830,213,840,231,850,164,860,193,870,148,880,151,890,190,900,113,910,256">
  </polyline>
 <text x="912.1" y="95">Max:289</text><text x="912.1" y="284">Min:81</text><text x=""
    y="307">31/08/2022</text><text x="830.1" y="307">30/11/2022</text><text x="" y="330">played: </text>
   <rect x=""y="81" width="915.1" height="209" fill="transparent" stroke="black" stroke-width="1"> </rect>
</svg>