<svg class="svggraph" xmlns="http://www.w3.org/2000/svg" viewBox="0 0 1050 850 ">
  <polyline fill="none" stroke="#0074d9" stroke-width="2"
    points="0,146.68,1,147.64,2,146.09,3,144.52,4,144.34,5,144.2,6,143.17,7,141.23,8,137.39,9,140.04,10,138.34,11,136.96,12,134.47,13,136.83,14,138.2,15,138.29,16,
    138.51,17,134.77,18,135.01,19,132.93,20,132.69,21,129.9,22,128.3,23,122.51,24,122.94,25,121.52,26,
    120.04,27,121.79,28,117.57,29,117.8,30,117.75,31,118.82,32,122.23,33,125.74,34,125.5,35,121.51,36,
    118.81,37,121.63,38,122.76,39,121.74,40,122.01,41,122.71,42,125.31,43,124.93,44,126.3,45,127.73,46,
    127.27,47,125.49,48,127.69,49,127.25,50,130.66,51,129.19,52,128.47,53,127.71,54,126.72,55,127.79,56,
    129.66,57,128.45,58,129.58,59,130.31,60,130.38,61,133.98,62,133.23,63,134.74,64,135.55,65,138.37,66,
    139.07,67,137.79,68,136.56,69,134.93,70,134.01,71,132.54,72,131.5,73,129.47,74,132.61,75,132.48,76,
    131.64,77,132.34,78,131.81,79,132.04,80,130.79,81,129.22,82,129.12,83,128.08,84,128.54,85,128.25,86,
    127.15,87,129.18,88,130.88,89,138.13,90,139.92,91,139.06,92,137.18,93,139.18,94,141.0,95,140.47,96,
    140.83,97,138.08,98,137.62,99,141.12,100,141.19,101,140.71,102,141.86,103,142.8,104,142.06,105,138.44,
    106,137.08,107,137.85,108,135.02,109,135.67,110,137.06,111,135.72,112,135.11,113,136.19,114,137.96,115,
    140.83,116,142.78,117,142.88,118,141.18,119,140.15,120,139.43,121,138.84,122,139.27,123,136.89,124,134.39,
    125,133.8,126,131.17,127,128.48,128,129.66,129,132.94,130,138.37,131,135.03,132,133.6,133,132.9,134,130.75,
    135,129.13,136,134.44,137,137.67,138,135.92,139,137.4,140,132.52,141,133.04,142,132.21,143,135.74,144,135.06,
    145,136.19,146,139.1,147,138.25,148,139.85,149,138.32,150,129.15,151,126.17,152,126.56,153,126.14,154,125.98,
    155,126.37,156,127.73,157,128.55,158,129.39,159,128.89,160,130.27,161,130.15,162,130.02,163,132.13,164,131.94,
    165,131.47,166,131.35,167,129.25,168,128.3,169,129.06,170,128.10,146.68,1,147.64,2,146.09,3,144.52,4,144.34,5,
    144.2,6,143.17,7,141.23,8,137.39,9,140.04,10,138.34,11,136.96,12,134.47,13,136.83,14,138.2,15,138.29,16,138.51,17,
    134.77,18,135.01,19,132.93,20,132.69,21,129.9,22,128.3,23,122.51,24,122.94,25,121.52,26,120.04,27,121.79,28,117.57,
    29,117.8,30,117.75,31,118.82,32,122.23,33,125.74,34,125.5,35,121.51,36,118.81,37,121.63,38,122.76,39,121.74,40,
    122.01,41,122.71,42,125.31,43,124.93,44,126.3,45,127.73,46,127.27,47,125.49,48,127.69,49,127.25,50,130.66,51,
    129.19,52,128.47,53,127.71,54,126.72,55,127.79,56,129.66,57,128.45,58,129.58,59,130.31,60,130.38,61,133.98,62,
    133.23,63,134.74,64,135.55,65,138.37,66,139.07,67,137.79,68,136.56,69,134.93,70,134.01,71,132.54,72,131.5,73,
    129.47,74,132.61,75,132.48,76,131.64,77,132.34,78,131.81,79,132.04,80,130.79,81,129.22,82,129.12,83,128.08,84,
    128.54,85,128.25,86,127.15,87,129.18,88,130.88,89,138.13,90,139.92,91,139.06,92,137.18,93,139.18,94,141.0,95,
    140.47,96,140.83,97,138.08,98,137.62,99,141.12,100,141.19,101,140.71,102,141.86,103,142.8,104,142.06,105,138.44,
    106,137.08,107,137.85,108,135.02,109,135.67,110,137.06,111,135.72,112,135.11,113,136.19,114,137.96,115,140.83,
    116,142.78,117,142.88,118,141.18,119,140.15,120,139.43,121,138.84,122,139.27,123,136.89,124,134.39,125,133.8,126,
    131.17,127,128.48,128,129.66,129,132.94,130,138.37,131,135.03,132,133.6,133,132.9,134,130.75,135,129.13,136,
    134.44,137,137.67,138,135.92,139,137.4">
  </polyline>
 <text x="912.1" y="95">Max:289</text><text x="912.1" y="284">Min:81</text><text x=""
    y="307">31/08/2022</text><text x="830.1" y="307">30/11/2022</text><text x="" y="330">played: </text>
   <rect x=""y="81" width="915.1" height="209" fill="transparent" stroke="black" stroke-width="1"> </rect>
</svg>